<svg width="24" height="21" viewBox="0 0 24 21" fill="none" xmlns="http://www.w3.org/2000/svg">
<path d="M23.95 1L20.204 20.126C20.204 20.126 20.043 21 18.959 21C18.383 21 18.086 20.726 18.086 20.726L9.972 13.993L6.002 11.992L0.907 10.637C0.907 10.637 0 10.375 0 9.625C0 9 0.933 8.702 0.933 8.702L22.249 0.234003C22.248 0.233003 22.9 -0.000996804 23.375 3.19601e-06C23.667 3.19601e-06 24 0.125003 24 0.500003C24 0.750003 23.95 1 23.95 1Z" fill="white"/>
<path d="M13 16.505L9.574 19.879C9.574 19.879 9.425 19.994 9.226 19.999C9.157 20.001 9.083 19.99 9.007 19.956L9.971 13.991L13 16.505Z" fill="#B0BEC5"/>
<path d="M19.897 4.196C19.728 3.976 19.416 3.936 19.196 4.103L6 12C6 12 8.106 17.892 8.427 18.912C8.749 19.933 9.007 19.956 9.007 19.956L9.971 13.992L19.803 4.896C20.023 4.729 20.064 4.416 19.897 4.196Z" fill="#CFD8DC"/>
</svg>
